<?xml version="1.0" encoding="UTF-8"?><svg xmlns="http://www.w3.org/2000/svg" xmlns:xlink="http://www.w3.org/1999/xlink" fill-opacity="1" color-rendering="auto" color-interpolation="auto" text-rendering="auto" stroke="black" stroke-linecap="square" width="1891" stroke-miterlimit="10" shape-rendering="auto" stroke-opacity="1" fill="black" stroke-dasharray="none" font-weight="normal" stroke-width="1" height="875" font-family="'Dialog'" font-style="normal" stroke-linejoin="miter" font-size="12px" stroke-dashoffset="0" image-rendering="auto">
  <!--Generated by ySVG 2.5-->
  <defs id="genericDefs"/>
  <g>
    <defs id="defs1">
      <clipPath clipPathUnits="userSpaceOnUse" id="clipPath1">
        <path d="M0 0 L1891 0 L1891 875 L0 875 L0 0 Z"/>
      </clipPath>
      <clipPath clipPathUnits="userSpaceOnUse" id="clipPath2">
        <path d="M-496 -380 L1395 -380 L1395 495 L-496 495 L-496 -380 Z"/>
      </clipPath>
    </defs>
    <g fill="white" text-rendering="geometricPrecision" shape-rendering="geometricPrecision" transform="translate(496,380)" stroke="white">
      <rect x="-496" width="1891" height="875" y="-380" clip-path="url(#clipPath2)" stroke="none"/>
    </g>
    <g fill="white" text-rendering="geometricPrecision" shape-rendering="geometricPrecision" transform="matrix(1,0,0,1,496,380)" stroke="white">
      <rect x="294" width="118" height="30" y="75" clip-path="url(#clipPath2)" stroke="none"/>
    </g>
    <g text-rendering="geometricPrecision" stroke-miterlimit="1.45" shape-rendering="geometricPrecision" transform="matrix(1,0,0,1,496,380)" stroke-linecap="butt">
      <rect fill="none" x="294" width="118" height="30" y="75" clip-path="url(#clipPath2)"/>
      <text x="302.2988" xml:space="preserve" y="94.7139" clip-path="url(#clipPath2)" font-family="sans-serif" stroke="none">AnnotationSchema</text>
    </g>
    <g fill="rgb(255,153,204)" text-rendering="geometricPrecision" shape-rendering="geometricPrecision" transform="matrix(1,0,0,1,496,380)" stroke="rgb(255,153,204)">
      <circle r="10" clip-path="url(#clipPath2)" cx="587.9854" cy="-313.5596" stroke="none"/>
      <rect x="229.8252" y="-351.1611" clip-path="url(#clipPath2)" fill="white" width="716.3203" height="23.6016" stroke="none"/>
      <rect x="229.8252" y="-351.1611" clip-path="url(#clipPath2)" fill="none" width="716.3203" height="23.6016" stroke="rgb(51,51,51)" stroke-miterlimit="1.6"/>
    </g>
    <g font-size="16px" stroke-linecap="butt" transform="matrix(1,0,0,1,496,380)" text-rendering="geometricPrecision" font-family="sans-serif" shape-rendering="geometricPrecision" stroke-miterlimit="1.45">
      <text x="231.8252" xml:space="preserve" y="-333.0752" clip-path="url(#clipPath2)" stroke="none">https://raw.githubusercontent.com/TESTaLOD/TESTaLOD/master/ontology/testalod.owl#ToyDataset</text>
      <circle fill="none" stroke-width="3" r="10" clip-path="url(#clipPath2)" cx="587.9854" cy="-313.5596"/>
    </g>
    <g fill="rgb(255,153,204)" text-rendering="geometricPrecision" shape-rendering="geometricPrecision" transform="matrix(1,0,0,1,496,380)" stroke="rgb(255,153,204)">
      <circle r="10" clip-path="url(#clipPath2)" cx="649.4264" cy="217.793" stroke="none"/>
      <rect x="663.4264" y="205.9922" clip-path="url(#clipPath2)" fill="none" width="85.8438" height="23.6016" stroke="rgb(51,51,51)" stroke-miterlimit="1.6"/>
    </g>
    <g font-size="16px" stroke-linecap="butt" transform="matrix(1,0,0,1,496,380)" text-rendering="geometricPrecision" font-family="sans-serif" shape-rendering="geometricPrecision" stroke-miterlimit="1.45">
      <text x="665.4265" xml:space="preserve" y="224.0781" clip-path="url(#clipPath2)" stroke="none">2019-02-27</text>
      <circle fill="none" stroke-width="3" r="10" clip-path="url(#clipPath2)" cx="649.4264" cy="217.793"/>
    </g>
    <g fill="rgb(255,153,204)" text-rendering="geometricPrecision" shape-rendering="geometricPrecision" transform="matrix(1,0,0,1,496,380)" stroke="rgb(255,153,204)">
      <circle r="10" clip-path="url(#clipPath2)" cx="649.4264" cy="-8.0371" stroke="none"/>
      <rect x="663.4264" y="-19.8379" clip-path="url(#clipPath2)" fill="none" width="716.3203" height="23.6016" stroke="rgb(51,51,51)" stroke-miterlimit="1.6"/>
    </g>
    <g font-size="16px" stroke-linecap="butt" transform="matrix(1,0,0,1,496,380)" text-rendering="geometricPrecision" font-family="sans-serif" shape-rendering="geometricPrecision" stroke-miterlimit="1.45">
      <text x="665.4265" xml:space="preserve" y="-1.752" clip-path="url(#clipPath2)" stroke="none">https://raw.githubusercontent.com/TESTaLOD/TESTaLOD/master/ontology/testalod.owl#ToyDataset</text>
      <circle fill="none" stroke-width="3" r="10" clip-path="url(#clipPath2)" cx="649.4264" cy="-8.0371"/>
    </g>
    <g fill="rgb(255,153,204)" text-rendering="geometricPrecision" shape-rendering="geometricPrecision" transform="matrix(1,0,0,1,496,380)" stroke="rgb(255,153,204)">
      <circle r="10" clip-path="url(#clipPath2)" cx="688.0033" cy="90" stroke="none"/>
      <rect x="702.0033" y="78.1992" clip-path="url(#clipPath2)" fill="none" width="377.5234" height="23.6016" stroke="rgb(51,51,51)" stroke-miterlimit="1.6"/>
    </g>
    <g font-size="16px" stroke-linecap="butt" transform="matrix(1,0,0,1,496,380)" text-rendering="geometricPrecision" font-family="sans-serif" shape-rendering="geometricPrecision" stroke-miterlimit="1.45">
      <text x="704.0032" xml:space="preserve" y="96.2852" clip-path="url(#clipPath2)" stroke="none">What are the coins which have inscriptions on them?</text>
      <circle fill="none" stroke-width="3" r="10" clip-path="url(#clipPath2)" cx="688.0033" cy="90"/>
    </g>
    <g fill="rgb(255,153,204)" text-rendering="geometricPrecision" shape-rendering="geometricPrecision" transform="matrix(1,0,0,1,496,380)" stroke="rgb(255,153,204)">
      <circle r="10" clip-path="url(#clipPath2)" cx="304" cy="253.6973" stroke="none"/>
      <rect x="-480.9219" y="267.6973" clip-path="url(#clipPath2)" fill="rgb(51,51,51)" width="1569.8438" height="212" stroke="none"/>
    </g>
    <g stroke-linecap="butt" font-size="16px" transform="matrix(1,0,0,1,496,380)" fill="white" text-rendering="geometricPrecision" font-family="'Consolas'" shape-rendering="geometricPrecision" stroke="white" stroke-miterlimit="1.45">
      <text x="-478.9219" xml:space="preserve" y="281.5801" clip-path="url(#clipPath2)" stroke="none">{</text>
      <text x="-478.9219" xml:space="preserve" y="297.5801" clip-path="url(#clipPath2)" stroke="none">  &amp;quot;head&amp;quot;: {</text>
      <text x="-478.9219" xml:space="preserve" y="313.5801" clip-path="url(#clipPath2)" stroke="none">    &amp;quot;vars&amp;quot;: [ &amp;quot;cultprop&amp;quot; , &amp;quot;AffElem&amp;quot; ]</text>
      <text x="-478.9219" xml:space="preserve" y="329.5801" clip-path="url(#clipPath2)" stroke="none">  } ,</text>
      <text x="-478.9219" xml:space="preserve" y="345.5801" clip-path="url(#clipPath2)" stroke="none">  &amp;quot;results&amp;quot;: {</text>
      <text x="-478.9219" xml:space="preserve" y="361.5801" clip-path="url(#clipPath2)" stroke="none">    &amp;quot;bindings&amp;quot;: [</text>
      <text x="-478.9219" xml:space="preserve" y="377.5801" clip-path="url(#clipPath2)" stroke="none">      {</text>
      <text x="-478.9219" xml:space="preserve" y="393.5801" clip-path="url(#clipPath2)" stroke="none">        &amp;quot;cultprop&amp;quot;: { &amp;quot;type&amp;quot;: &amp;quot;uri&amp;quot; , &amp;quot;value&amp;quot;: &amp;quot;https://w3id.org/arco/test/VI/ToyDatasets/Toyset_VI06.owl#MonetaBaiocco&amp;quot; } ,</text>
      <text x="-478.9219" xml:space="preserve" y="409.5801" clip-path="url(#clipPath2)" stroke="none">        &amp;quot;AffElem&amp;quot;: { &amp;quot;type&amp;quot;: &amp;quot;uri&amp;quot; , &amp;quot;value&amp;quot;: &amp;quot;https://w3id.org/arco/test/VI/ToyDatasets/Toyset_VI06.owl#LegendaMonetaBaiocco&amp;quot; }</text>
      <text x="-478.9219" xml:space="preserve" y="425.5801" clip-path="url(#clipPath2)" stroke="none">      }</text>
      <text x="-478.9219" xml:space="preserve" y="441.5801" clip-path="url(#clipPath2)" stroke="none">    ]</text>
      <text x="-478.9219" xml:space="preserve" y="457.5801" clip-path="url(#clipPath2)" stroke="none">  }</text>
      <text x="-478.9219" xml:space="preserve" y="473.5801" clip-path="url(#clipPath2)" stroke="none">}</text>
    </g>
    <g text-rendering="geometricPrecision" stroke-miterlimit="1.45" stroke-width="3" shape-rendering="geometricPrecision" transform="matrix(1,0,0,1,496,380)" stroke-linecap="butt">
      <circle fill="none" r="10" clip-path="url(#clipPath2)" cx="304" cy="253.6973"/>
    </g>
    <g fill="rgb(255,153,204)" text-rendering="geometricPrecision" shape-rendering="geometricPrecision" transform="matrix(1,0,0,1,496,380)" stroke="rgb(255,153,204)">
      <circle r="10" clip-path="url(#clipPath2)" cx="-122.6683" cy="-26.416" stroke="none"/>
      <rect x="-467.7464" y="-188.416" clip-path="url(#clipPath2)" fill="rgb(51,51,51)" width="690.1562" height="148" stroke="none"/>
      <rect x="-467.7464" y="-188.416" clip-path="url(#clipPath2)" fill="none" width="690.1562" height="148" stroke="rgb(51,51,51)" stroke-miterlimit="1.6"/>
    </g>
    <g stroke-linecap="butt" font-size="16px" transform="matrix(1,0,0,1,496,380)" fill="white" text-rendering="geometricPrecision" font-family="'Consolas'" shape-rendering="geometricPrecision" stroke="white" stroke-miterlimit="1.45">
      <text x="-465.7464" xml:space="preserve" y="-174.5332" clip-path="url(#clipPath2)" stroke="none">PREFIX arco-dd: &amp;lt;https://w3id.org/arco/ontology/denotative-description/&amp;gt;</text>
      <text x="-465.7464" xml:space="preserve" y="-158.5332" clip-path="url(#clipPath2)" stroke="none"> </text>
      <text x="-465.7464" xml:space="preserve" y="-142.5332" clip-path="url(#clipPath2)" stroke="none">SELECT *</text>
      <text x="-465.7464" xml:space="preserve" y="-126.5332" clip-path="url(#clipPath2)" stroke="none">WHERE{</text>
      <text x="-465.7464" xml:space="preserve" y="-110.5332" clip-path="url(#clipPath2)" stroke="none">  ?cultprop arco-dd:hasAffixedElement ?AffElem.</text>
      <text x="-465.7464" xml:space="preserve" y="-94.5332" clip-path="url(#clipPath2)" stroke="none">  ?AffElem a arco-dd:CoinLegend . </text>
      <text x="-465.7464" xml:space="preserve" y="-78.5332" clip-path="url(#clipPath2)" stroke="none"> </text>
      <text x="-465.7464" xml:space="preserve" y="-62.5332" clip-path="url(#clipPath2)" stroke="none">}</text>
      <text x="-465.7464" xml:space="preserve" y="-46.5332" clip-path="url(#clipPath2)" stroke="none">LIMIT 100</text>
    </g>
    <g text-rendering="geometricPrecision" stroke-miterlimit="1.45" stroke-width="3" shape-rendering="geometricPrecision" transform="matrix(1,0,0,1,496,380)" stroke-linecap="butt">
      <circle fill="none" r="10" clip-path="url(#clipPath2)" cx="-122.6683" cy="-26.416"/>
    </g>
    <g fill="rgb(255,153,204)" text-rendering="geometricPrecision" shape-rendering="geometricPrecision" transform="matrix(1,0,0,1,496,380)" stroke="rgb(255,153,204)">
      <circle r="10" clip-path="url(#clipPath2)" cx="724.6243" cy="-237.665" stroke="none"/>
      <rect x="738.6243" y="-249.4658" clip-path="url(#clipPath2)" fill="none" width="320.6406" height="23.6016" stroke="rgb(51,51,51)" stroke-miterlimit="1.6"/>
    </g>
    <g stroke-linecap="butt" font-size="16px" transform="matrix(1,0,0,1,496,380)" fill="rgb(51,51,51)" text-rendering="geometricPrecision" font-family="sans-serif" shape-rendering="geometricPrecision" stroke="rgb(51,51,51)" stroke-miterlimit="1.45">
      <text x="740.6243" xml:space="preserve" y="-231.3799" clip-path="url(#clipPath2)" stroke="none">Run by Valentina Pasqual and Fabio Mariani</text>
    </g>
    <g text-rendering="geometricPrecision" stroke-miterlimit="1.45" stroke-width="3" shape-rendering="geometricPrecision" transform="matrix(1,0,0,1,496,380)" stroke-linecap="butt">
      <circle fill="none" r="10" clip-path="url(#clipPath2)" cx="724.6243" cy="-237.665"/>
    </g>
    <g fill="rgb(255,153,204)" text-rendering="geometricPrecision" shape-rendering="geometricPrecision" transform="matrix(1,0,0,1,496,380)" stroke="rgb(255,153,204)">
      <circle r="10" clip-path="url(#clipPath2)" cx="304" cy="-237.665" stroke="none"/>
      <rect x="108.1328" y="-249.4658" clip-path="url(#clipPath2)" fill="none" width="181.8672" height="23.6016" stroke="rgb(51,51,51)" stroke-miterlimit="1.6"/>
    </g>
    <g font-size="16px" stroke-linecap="butt" transform="matrix(1,0,0,1,496,380)" text-rendering="geometricPrecision" font-family="sans-serif" shape-rendering="geometricPrecision" stroke-miterlimit="1.45">
      <text x="110.1328" xml:space="preserve" y="-231.3799" clip-path="url(#clipPath2)" stroke="none">Test on ArCo release 0.4</text>
      <circle fill="none" stroke-width="3" r="10" clip-path="url(#clipPath2)" cx="304" cy="-237.665"/>
    </g>
    <g stroke-linecap="butt" transform="matrix(1,0,0,1,496,380)" fill="rgb(153,51,0)" text-rendering="geometricPrecision" shape-rendering="geometricPrecision" stroke="rgb(153,51,0)" stroke-miterlimit="1.45">
      <path fill="none" d="M361.7342 75 L580.4374 -300.597" clip-path="url(#clipPath2)"/>
      <path fill="black" d="M371.2292 66.6427 L360.2903 69.5305 Z" clip-path="url(#clipPath2)" stroke="none"/>
      <path fill="none" stroke-miterlimit="10" d="M371.2292 66.6427 L360.2903 69.5305 Z" clip-path="url(#clipPath2)" stroke-linecap="square"/>
      <path fill="black" d="M582.4503 -304.0536 L571.2268 -296.7028 L582.4503 -304.0536 L581.5969 -290.6644 Z" clip-path="url(#clipPath2)" stroke="none"/>
      <path fill="none" stroke-miterlimit="10" d="M582.4503 -304.0536 L571.2268 -296.7028 L582.4503 -304.0536 L581.5969 -290.6644 Z" clip-path="url(#clipPath2)" stroke-linecap="square"/>
      <rect x="374.339" y="-126.0806" clip-path="url(#clipPath2)" fill="white" width="195.2188" height="23.6016" stroke="none"/>
      <text x="376.339" font-size="16px" y="-107.9946" clip-path="url(#clipPath2)" font-family="sans-serif" stroke="none" xml:space="preserve">hasInputTestDataCategory</text>
      <path fill="none" d="M387.7938 105 L635.652 211.8546" clip-path="url(#clipPath2)"/>
      <path fill="black" d="M397.2298 113.4239 L393.0505 102.9104 Z" clip-path="url(#clipPath2)" stroke="none"/>
      <path fill="none" stroke-miterlimit="10" d="M397.2298 113.4239 L393.0505 102.9104 Z" clip-path="url(#clipPath2)" stroke-linecap="square"/>
      <path fill="black" d="M639.3252 213.4382 L630.6809 203.1777 L639.3252 213.4382 L625.9302 214.1973 Z" clip-path="url(#clipPath2)" stroke="none"/>
      <path fill="none" stroke-miterlimit="10" d="M639.3252 213.4382 L630.6809 203.1777 L639.3252 213.4382 L625.9302 214.1973 Z" clip-path="url(#clipPath2)" stroke-linecap="square"/>
      <rect x="487.8377" y="150.0357" clip-path="url(#clipPath2)" fill="white" width="63.5859" height="23.6016" stroke="none"/>
      <text x="489.8377" font-size="16px" y="168.1216" clip-path="url(#clipPath2)" font-family="sans-serif" stroke="none" xml:space="preserve">testDate</text>
      <path fill="none" d="M398.3542 75 L635.1851 -3.3271" clip-path="url(#clipPath2)"/>
      <path fill="black" d="M411.0033 75.0297 L400.8959 69.9463 Z" clip-path="url(#clipPath2)" stroke="none"/>
      <path fill="none" stroke-miterlimit="10" d="M411.0033 75.0297 L400.8959 69.9463 Z" clip-path="url(#clipPath2)" stroke-linecap="square"/>
      <path fill="black" d="M638.9828 -4.5831 L625.7057 -6.5116 L638.9828 -4.5831 L629.4738 4.8815 Z" clip-path="url(#clipPath2)" stroke="none"/>
      <path fill="none" stroke-miterlimit="10" d="M638.9828 -4.5831 L625.7057 -6.5116 L638.9828 -4.5831 L629.4738 4.8815 Z" clip-path="url(#clipPath2)" stroke-linecap="square"/>
      <rect x="450.346" y="21.0778" clip-path="url(#clipPath2)" fill="white" width="150.7344" height="23.6016" stroke="none"/>
      <text x="452.346" font-size="16px" y="39.1637" clip-path="url(#clipPath2)" font-family="sans-serif" stroke="none" xml:space="preserve">hasInputTestDataUri</text>
      <path fill="none" d="M412 90 L673.0032 90" clip-path="url(#clipPath2)"/>
      <path fill="black" d="M424 94 L416 86 Z" clip-path="url(#clipPath2)" stroke="none"/>
      <path fill="none" stroke-miterlimit="10" d="M424 94 L416 86 Z" clip-path="url(#clipPath2)" stroke-linecap="square"/>
      <path fill="black" d="M677.0032 90 L665.0032 84 L677.0032 90 L665.0032 96 Z" clip-path="url(#clipPath2)" stroke="none"/>
      <path fill="none" stroke-miterlimit="10" d="M677.0032 90 L665.0032 84 L677.0032 90 L665.0032 96 Z" clip-path="url(#clipPath2)" stroke-linecap="square"/>
      <rect x="518.1032" y="78.1992" clip-path="url(#clipPath2)" fill="white" width="53.7969" height="23.6016" stroke="none"/>
      <text x="520.1032" font-size="16px" y="96.2852" clip-path="url(#clipPath2)" font-family="sans-serif" stroke="none" xml:space="preserve">hasCQ</text>
      <path fill="none" d="M348.51 105 L308.3014 239.3272" clip-path="url(#clipPath2)"/>
      <path fill="black" d="M341.2368 115.349 L351.195 109.9791 Z" clip-path="url(#clipPath2)" stroke="none"/>
      <path fill="none" stroke-miterlimit="10" d="M341.2368 115.349 L351.195 109.9791 Z" clip-path="url(#clipPath2)" stroke-linecap="square"/>
      <path fill="black" d="M307.1544 243.1592 L316.3435 233.3838 L307.1544 243.1592 L304.8475 229.9427 Z" clip-path="url(#clipPath2)" stroke="none"/>
      <path fill="none" stroke-miterlimit="10" d="M307.1544 243.1592 L316.3435 233.3838 L307.1544 243.1592 L304.8475 229.9427 Z" clip-path="url(#clipPath2)" stroke-linecap="square"/>
      <rect x="256.822" y="162.5479" clip-path="url(#clipPath2)" fill="white" width="141.8594" height="23.6016" stroke="none"/>
      <text x="258.822" font-size="16px" y="180.6338" clip-path="url(#clipPath2)" font-family="sans-serif" stroke="none" xml:space="preserve">hasExpectedResult</text>
      <path fill="none" d="M294 75.5602 L-108.0983 -22.8501" clip-path="url(#clipPath2)"/>
      <path fill="black" d="M283.2949 68.8222 L289.1638 78.4946 Z" clip-path="url(#clipPath2)" stroke="none"/>
      <path fill="none" stroke-miterlimit="10" d="M283.2949 68.8222 L289.1638 78.4946 Z" clip-path="url(#clipPath2)" stroke-linecap="square"/>
      <path fill="black" d="M-111.9836 -23.801 L-101.754 -15.1203 L-111.9836 -23.801 L-98.9013 -26.7763 Z" clip-path="url(#clipPath2)" stroke="none"/>
      <path fill="none" stroke-miterlimit="10" d="M-111.9836 -23.801 L-101.754 -15.1203 L-111.9836 -23.801 L-98.9013 -26.7763 Z" clip-path="url(#clipPath2)" stroke-linecap="square"/>
      <rect x="-8.2599" y="13.995" clip-path="url(#clipPath2)" fill="white" width="197.8516" height="23.6016" stroke="none"/>
      <text x="-6.2599" font-size="16px" y="32.081" clip-path="url(#clipPath2)" font-family="sans-serif" stroke="none" xml:space="preserve">hasSPARQLQueryUnitTest</text>
      <path fill="none" d="M370.0124 75 L713.3732 -227.7448" clip-path="url(#clipPath2)"/>
      <path fill="black" d="M381.6587 70.0641 L370.3673 69.3543 Z" clip-path="url(#clipPath2)" stroke="none"/>
      <path fill="none" stroke-miterlimit="10" d="M381.6587 70.0641 L370.3673 69.3543 Z" clip-path="url(#clipPath2)" stroke-linecap="square"/>
      <path fill="black" d="M716.3735 -230.3902 L703.4045 -226.9545 L716.3735 -230.3902 L711.3406 -217.9535 Z" clip-path="url(#clipPath2)" stroke="none"/>
      <path fill="none" stroke-miterlimit="10" d="M716.3735 -230.3902 L703.4045 -226.9545 L716.3735 -230.3902 L711.3406 -217.9535 Z" clip-path="url(#clipPath2)" stroke-linecap="square"/>
      <rect x="509.8016" y="-89.2644" clip-path="url(#clipPath2)" fill="white" width="66.2578" height="23.6016" stroke="none"/>
      <text x="511.8016" font-size="16px" y="-71.1785" clip-path="url(#clipPath2)" font-family="sans-serif" stroke="none" xml:space="preserve">testedBy</text>
      <path fill="none" d="M350.7569 75 L306.2185 -222.83" clip-path="url(#clipPath2)"/>
      <path fill="black" d="M352.9381 62.5404 L346.2093 71.6356 Z" clip-path="url(#clipPath2)" stroke="none"/>
      <path fill="none" stroke-miterlimit="10" d="M352.9381 62.5404 L346.2093 71.6356 Z" clip-path="url(#clipPath2)" stroke-linecap="square"/>
      <path fill="black" d="M305.6269 -226.786 L301.4677 -214.0306 L305.6269 -226.786 L313.3357 -215.8054 Z" clip-path="url(#clipPath2)" stroke="none"/>
      <path fill="none" stroke-miterlimit="10" d="M305.6269 -226.786 L301.4677 -214.0306 L305.6269 -226.786 L313.3357 -215.8054 Z" clip-path="url(#clipPath2)" stroke-linecap="square"/>
      <rect x="293.2277" y="-88.1333" clip-path="url(#clipPath2)" fill="white" width="69.7969" height="23.6016" stroke="none"/>
      <text x="295.2277" font-size="16px" y="-70.0474" clip-path="url(#clipPath2)" font-family="sans-serif" stroke="none" xml:space="preserve">comment</text>
    </g>
  </g>
</svg>
